<?xml version="1.0" encoding="UTF-8"?>
<svg xmlns="http://www.w3.org/2000/svg" xmlns:xlink="http://www.w3.org/1999/xlink" width="28pt" height="29pt" viewBox="0 0 28 29" version="1.1">
<defs>
<linearGradient id="linear0" gradientUnits="userSpaceOnUse" x1="473.97" y1="343.36" x2="361.7" y2="248.19" gradientTransform="matrix(0.249677,0,0,-0.249677,-90.980499,88.875075)">
<stop offset="0" style="stop-color:rgb(13.333333%,68.235294%,89.803922%);stop-opacity:1;"/>
<stop offset="1" style="stop-color:rgb(40.392157%,18.823529%,56.078431%);stop-opacity:1;"/>
</linearGradient>
</defs>
<g id="surface1">
<path style=" stroke:none;fill-rule:nonzero;fill:rgb(72.54902%,12.156863%,21.960784%);fill-opacity:1;" d="M 11.535156 12.183594 L 11.992188 12.183594 L 11.992188 17.984375 L 11.535156 17.984375 Z M 11.535156 12.183594 "/>
<path style=" stroke:none;fill-rule:nonzero;fill:rgb(72.54902%,12.156863%,21.960784%);fill-opacity:1;" d="M 11.992188 13.011719 L 10.417969 14.582031 L 10.792969 14.953125 L 11.992188 13.753906 Z M 11.992188 13.011719 "/>
<path style=" stroke:none;fill-rule:nonzero;fill:rgb(72.54902%,12.156863%,21.960784%);fill-opacity:1;" d="M 14 11 L 12.445312 12.542969 L 12.445312 13.300781 L 14 11.761719 L 17.191406 14.953125 L 17.582031 14.582031 Z M 14 11 "/>
<path style=" stroke:none;fill-rule:nonzero;fill:rgb(72.54902%,12.156863%,21.960784%);fill-opacity:1;" d="M 11.546875 17.539062 L 16.601562 17.539062 L 16.601562 17.992188 L 11.546875 17.992188 Z M 11.546875 17.539062 "/>
<path style=" stroke:none;fill-rule:nonzero;fill:rgb(72.54902%,12.156863%,21.960784%);fill-opacity:1;" d="M 13.613281 13.382812 L 13.9375 13.382812 L 13.9375 13.707031 L 13.613281 13.707031 Z M 13.613281 13.382812 "/>
<path style=" stroke:none;fill-rule:nonzero;fill:rgb(72.54902%,12.156863%,21.960784%);fill-opacity:1;" d="M 14.128906 13.382812 L 14.453125 13.382812 L 14.453125 13.707031 L 14.128906 13.707031 Z M 14.128906 13.382812 "/>
<path style=" stroke:none;fill-rule:nonzero;fill:rgb(72.54902%,12.156863%,21.960784%);fill-opacity:1;" d="M 13.613281 12.929688 L 13.9375 12.929688 L 13.9375 13.253906 L 13.613281 13.253906 Z M 13.613281 12.929688 "/>
<path style=" stroke:none;fill-rule:nonzero;fill:rgb(72.54902%,12.156863%,21.960784%);fill-opacity:1;" d="M 14.128906 12.929688 L 14.453125 12.929688 L 14.453125 13.253906 L 14.128906 13.253906 Z M 14.128906 12.929688 "/>
<path style=" stroke:none;fill-rule:nonzero;fill:rgb(72.54902%,12.156863%,21.960784%);fill-opacity:1;" d="M 16.136719 14.664062 L 16.136719 17.984375 L 16.59375 17.984375 L 16.59375 15.117188 Z M 16.136719 14.664062 "/>
<path style=" stroke:none;fill-rule:nonzero;fill:url(#linear0);" d="M 27.769531 10.140625 C 27.898438 10.070312 27.972656 9.929688 27.964844 9.785156 L 27.964844 3.515625 C 27.960938 3.371094 27.890625 3.238281 27.769531 3.160156 L 22.34375 0.046875 C 22.214844 -0.015625 22.066406 -0.015625 21.9375 0.046875 L 16.511719 3.175781 C 16.382812 3.246094 16.308594 3.386719 16.316406 3.53125 L 16.316406 6.527344 C 16.332031 6.738281 16.507812 6.902344 16.722656 6.902344 C 16.933594 6.902344 17.109375 6.738281 17.128906 6.527344 L 17.128906 4.222656 L 20.59375 6.234375 L 21.742188 6.898438 L 21.742188 7.398438 L 6.265625 7.398438 L 6.265625 6.898438 L 7.414062 6.234375 L 10.886719 4.226562 L 10.886719 6.527344 C 10.90625 6.742188 11.082031 6.902344 11.292969 6.902344 C 11.507812 6.902344 11.683594 6.742188 11.699219 6.527344 L 11.699219 3.53125 C 11.695312 3.390625 11.621094 3.257812 11.503906 3.179688 L 6.0625 0.0507812 C 5.933594 -0.015625 5.785156 -0.015625 5.65625 0.0507812 L 0.230469 3.179688 C 0.101562 3.25 0.0273438 3.386719 0.0351562 3.53125 L 0.0351562 9.804688 C 0.0390625 9.949219 0.109375 10.078125 0.230469 10.160156 L 5.472656 13.171875 L 5.472656 15.847656 L 0.230469 18.84375 C 0.101562 18.914062 0.0273438 19.050781 0.0351562 19.199219 L 0.0351562 25.46875 C 0.0390625 25.613281 0.109375 25.746094 0.230469 25.824219 L 5.65625 28.953125 C 5.714844 28.984375 5.78125 29 5.847656 29 C 5.917969 29 5.984375 28.984375 6.042969 28.953125 L 11.472656 25.824219 C 11.597656 25.753906 11.671875 25.613281 11.667969 25.46875 L 11.667969 24.820312 C 11.648438 24.609375 11.472656 24.445312 11.261719 24.445312 C 11.046875 24.445312 10.871094 24.609375 10.855469 24.820312 L 10.855469 25.226562 L 6.238281 27.898438 L 6.238281 24.027344 L 21.71875 24.027344 L 21.71875 27.882812 L 17.101562 25.210938 L 17.101562 24.835938 C 17.085938 24.625 16.910156 24.460938 16.695312 24.460938 C 16.484375 24.460938 16.308594 24.625 16.289062 24.835938 L 16.289062 25.453125 C 16.296875 25.59375 16.367188 25.726562 16.484375 25.808594 L 21.90625 28.925781 C 21.964844 28.957031 22.03125 28.972656 22.101562 28.976562 C 22.167969 28.976562 22.234375 28.957031 22.296875 28.925781 L 27.722656 25.800781 C 27.847656 25.726562 27.921875 25.585938 27.914062 25.441406 L 27.914062 19.1875 C 27.914062 19.042969 27.839844 18.910156 27.722656 18.832031 L 22.480469 15.816406 L 22.480469 13.136719 Z M 17.515625 19.1875 L 21.730469 16.757812 L 21.730469 21.632812 L 20.980469 21.199219 Z M 22.539062 12.222656 L 22.539062 6.902344 L 23.6875 6.238281 L 27.152344 4.226562 L 27.152344 9.558594 Z M 22.125 0.859375 L 26.738281 3.53125 L 23.273438 5.527344 L 22.125 6.203125 L 20.972656 5.539062 L 17.503906 3.542969 Z M 7.019531 21.183594 L 6.269531 21.625 L 6.269531 16.75 L 10.484375 19.1875 Z M 5.847656 0.855469 L 10.46875 3.527344 L 7 5.523438 L 5.847656 6.203125 L 4.699219 5.539062 L 1.234375 3.542969 Z M 0.828125 4.222656 L 4.292969 6.230469 L 5.445312 6.894531 L 5.445312 12.226562 L 0.828125 9.550781 Z M 5.445312 16.746094 L 5.445312 21.625 L 4.695312 21.183594 L 1.226562 19.1875 Z M 0.828125 19.890625 L 4.292969 21.898438 L 5.445312 22.5625 L 5.445312 27.894531 L 0.828125 25.21875 Z M 6.257812 23.226562 L 6.257812 22.5625 L 7.40625 21.898438 L 10.871094 19.890625 L 10.871094 22.5625 C 10.871094 22.785156 11.054688 22.96875 11.277344 22.96875 C 11.5 22.96875 11.683594 22.785156 11.683594 22.5625 L 11.683594 19.1875 C 11.679688 19.046875 11.605469 18.914062 11.488281 18.832031 L 6.246094 15.820312 L 6.246094 13.15625 L 11.488281 10.140625 C 11.613281 10.066406 11.6875 9.929688 11.683594 9.785156 L 11.683594 9.089844 C 11.683594 8.863281 11.5 8.683594 11.277344 8.683594 C 11.054688 8.683594 10.871094 8.863281 10.871094 9.089844 L 10.871094 9.542969 L 6.257812 12.214844 L 6.257812 8.203125 L 21.734375 8.203125 L 21.734375 12.222656 L 17.117188 9.546875 L 17.117188 9.09375 C 17.117188 8.871094 16.9375 8.6875 16.710938 8.6875 C 16.488281 8.6875 16.308594 8.871094 16.308594 9.09375 L 16.308594 9.789062 C 16.3125 9.933594 16.382812 10.066406 16.503906 10.148438 L 21.746094 13.160156 L 21.746094 15.835938 L 16.527344 18.847656 C 16.402344 18.917969 16.324219 19.058594 16.332031 19.203125 L 16.332031 22.539062 C 16.351562 22.753906 16.527344 22.914062 16.738281 22.914062 C 16.953125 22.914062 17.128906 22.753906 17.144531 22.539062 L 17.144531 19.894531 L 20.609375 21.902344 L 21.761719 22.566406 L 21.761719 23.234375 Z M 22.539062 27.894531 L 22.539062 22.566406 L 23.6875 21.902344 L 27.152344 19.894531 L 27.152344 25.226562 Z M 26.765625 19.1875 L 23.300781 21.183594 L 22.550781 21.621094 L 22.550781 16.769531 Z M 26.765625 19.1875 "/>
</g>
</svg>
