<svg id="Layer_1" data-name="Layer 1" xmlns="http://www.w3.org/2000/svg" xmlns:xlink="http://www.w3.org/1999/xlink" viewBox="0 0 364.72 116.15"><defs><style>.cls-1{fill:#ba1f3a;}.cls-2{fill:url(#linear-gradient);}.cls-3{isolation:isolate;font-size:54.1px;fill:#fff;font-family:FranklinGothic-Medium, Franklin Gothic Medium;font-weight:500;}</style><linearGradient id="linear-gradient" x1="505.96" y1="479.4" x2="393.69" y2="574.57" gradientTransform="translate(-172.53 -227.32)" gradientUnits="userSpaceOnUse"><stop offset="0" stop-color="#24aee4"/><stop offset="1" stop-color="#67328f"/></linearGradient></defs><title>white</title><rect class="cls-1" x="46.1" y="48.8" width="1.82" height="23.23"/><polygon class="cls-1" points="47.92 52.12 41.62 58.41 43.12 59.9 47.92 55.09 47.92 52.12"/><polygon class="cls-1" points="55.97 44.06 49.74 50.23 49.74 53.27 55.97 47.12 68.75 59.9 70.31 58.41 55.97 44.06"/><rect class="cls-1" x="46.14" y="70.24" width="20.25" height="1.82"/><rect class="cls-1" x="54.41" y="53.6" width="1.3" height="1.3"/><rect class="cls-1" x="56.48" y="53.6" width="1.3" height="1.3"/><rect class="cls-1" x="54.41" y="51.78" width="1.3" height="1.3"/><rect class="cls-1" x="56.48" y="51.78" width="1.3" height="1.3"/><polygon class="cls-1" points="64.53 58.73 64.53 72.03 66.35 72.03 66.35 60.55 64.53 58.73"/><path class="cls-2" d="M335.09,280.12a1.55,1.55,0,0,0,.78-1.43V253.58a1.83,1.83,0,0,0-.78-1.43l-21.74-12.46a1.78,1.78,0,0,0-1.62,0L290,252.22a1.54,1.54,0,0,0-.78,1.42v12a1.63,1.63,0,0,0,3.25,0v-9.22l13.88,8,4.61,2.66v2H249v-2l4.61-2.66,13.88-8v9.22a1.63,1.63,0,0,0,3.25,0v-12a1.8,1.8,0,0,0-.78-1.42l-21.8-12.53a1.78,1.78,0,0,0-1.62,0l-21.74,12.53a1.54,1.54,0,0,0-.78,1.42v25.12a1.73,1.73,0,0,0,.78,1.42l21,12.07V303l-21,12a1.54,1.54,0,0,0-.78,1.42V341.5a1.73,1.73,0,0,0,.78,1.42l21.74,12.53a1.6,1.6,0,0,0,.77.19,1.53,1.53,0,0,0,.78-.19l21.74-12.53a1.53,1.53,0,0,0,.78-1.42v-2.6a1.63,1.63,0,0,0-3.25,0v1.62l-18.49,10.71v-15.5h62v15.44l-18.49-10.7V339a1.63,1.63,0,0,0-3.25,0v2.47a1.8,1.8,0,0,0,.78,1.43l21.74,12.48a1.65,1.65,0,0,0,.78.2,1.44,1.44,0,0,0,.78-.2l21.74-12.52a1.57,1.57,0,0,0,.77-1.43v-25a1.79,1.79,0,0,0-.77-1.43l-21-12.07V292.12ZM294,316.35l16.88-9.73v19.53l-3-1.75Zm20.12-27.9V267.14l4.61-2.66,13.88-8v21.35Zm-1.66-45.51L331,253.64l-13.88,8.05-4.61,2.66-4.61-2.66L294,253.64ZM252,324.35l-3,1.76V306.59l16.88,9.76Zm-4.68-81.43,18.5,10.7-13.89,8.05-4.61,2.68-4.6-2.66-13.89-8.05Zm-20.11,13.49,13.88,8,4.61,2.66v21.35l-18.49-10.71Zm18.49,50.16v19.54l-3-1.76-13.89-8Zm-18.49,12.59,13.88,8,4.61,2.66v21.35l-18.49-10.71Zm21.74,13.37v-2.66l4.6-2.66,13.89-8v10.71a1.62,1.62,0,0,0,3.24,0h0V316.35a1.76,1.76,0,0,0-.77-1.42l-21-12.07V292.19l21-12.07a1.56,1.56,0,0,0,.77-1.43V275.9a1.62,1.62,0,1,0-3.24,0v1.82l-18.49,10.71V272.35h62v16.1l-18.5-10.71v-1.82a1.62,1.62,0,0,0-3.24,0v2.79a1.75,1.75,0,0,0,.78,1.43l21,12.07v10.71L290.06,315a1.54,1.54,0,0,0-.78,1.42v13.37a1.63,1.63,0,0,0,3.25,0v-10.6l13.88,8.05,4.61,2.66v2.66Zm65.21,18.69V329.89l4.61-2.66,13.88-8.05v21.35Zm16.94-34.87-13.89,8-3,1.75V306.66Z" transform="translate(-223.97 -239.5)"/><text class="cls-3" transform="translate(121.25 72.33)">Real DApp</text></svg>